/* XPM */
static char * deepamehta_xpm[] = {
"64 64 606 2",
"  	c None",
". 	c #AFB7D2",
"+ 	c #B9CFE8",
"@ 	c #BBD2EA",
"# 	c #B5D4EC",
"$ 	c #B4D1EA",
"% 	c #B6CEE8",
"& 	c #B5CDE8",
"* 	c #B3CBE7",
"= 	c #B0C9E6",
"- 	c #AEC8E5",
"; 	c #ACC6E4",
"> 	c #AAC5E3",
", 	c #ABC6E3",
"' 	c #ABC6E4",
") 	c #A8C4E3",
"! 	c #A6C3E3",
"~ 	c #A5C3E3",
"{ 	c #A2C5E4",
"] 	c #A1C6E5",
"^ 	c #ADC9E3",
"/ 	c #B2D3EB",
"( 	c #B3D0EA",
"_ 	c #AFD0EB",
": 	c #AFCEEA",
"< 	c #B2CCE8",
"[ 	c #B4CCE7",
"} 	c #B2CBE6",
"| 	c #ADC8E5",
"1 	c #ACC7E4",
"2 	c #ADC7E5",
"3 	c #9FC6E6",
"4 	c #9CC6E7",
"5 	c #97C2E7",
"6 	c #95C0E6",
"7 	c #93BEE7",
"8 	c #8DB9E9",
"9 	c #88B5E8",
"0 	c #84B0E8",
"a 	c #78A2E2",
"b 	c #ADCCE3",
"c 	c #ABD4ED",
"d 	c #ADD2EC",
"e 	c #ADCEEA",
"f 	c #ADCDE9",
"g 	c #ADCCE8",
"h 	c #AFCAE6",
"i 	c #B1CAE6",
"j 	c #AFC9E5",
"k 	c #A7C4E3",
"l 	c #A9C5E3",
"m 	c #ABC5E3",
"n 	c #9EC7E6",
"o 	c #9AC5E8",
"p 	c #87B4E8",
"q 	c #81ADE8",
"r 	c #78A3E8",
"s 	c #A6CFEB",
"t 	c #A6CFEC",
"u 	c #A8CDEA",
"v 	c #ACCDE9",
"w 	c #ABCCE8",
"x 	c #AAC9E6",
"y 	c #AAC8E5",
"z 	c #ABC7E5",
"A 	c #B0CAE6",
"B 	c #A9C4E3",
"C 	c #A6C4E3",
"D 	c #A5C5E4",
"E 	c #A3C7E5",
"F 	c #94BFE7",
"G 	c #90BCE8",
"H 	c #8BB7E8",
"I 	c #85B1E8",
"J 	c #B8BDC2",
"K 	c #A8D2ED",
"L 	c #A4CDEA",
"M 	c #A4CCEA",
"N 	c #A8CCEA",
"O 	c #A7CAE7",
"P 	c #A6C8E6",
"Q 	c #A7C7E5",
"R 	c #A8C6E4",
"S 	c #B3CCE7",
"T 	c #A8C5E3",
"U 	c #A6C5E4",
"V 	c #A0C7E6",
"W 	c #9DC7E7",
"X 	c #92BEE7",
"Y 	c #A3B5C8",
"Z 	c #A7D0EC",
"` 	c #A3CBE9",
" .	c #A4CBE9",
"..	c #A5C9E7",
"+.	c #B5CDE7",
"@.	c #B6CDE8",
"#.	c #AEC9E6",
"$.	c #ACC8E5",
"%.	c #AAC7E4",
"&.	c #A8C8E6",
"*.	c #A8C9E7",
"=.	c #9FC8E8",
"-.	c #9CC8E8",
";.	c #9CC7E7",
">.	c #99C4E7",
",.	c #96C1E7",
"'.	c #91BDE8",
").	c #85B2E8",
"!.	c #8CB9E8",
"~.	c #A3CCEB",
"{.	c #A1C8E7",
"].	c #A4C7E6",
"^.	c #A5C8E6",
"/.	c #A4C7E5",
"(.	c #A3C5E4",
"_.	c #B8CFE9",
":.	c #BBD1EA",
"<.	c #B9D0E9",
"[.	c #AFCBE7",
"}.	c #AECBE7",
"|.	c #ADCAE6",
"1.	c #AACDE9",
"2.	c #A5CDEB",
"3.	c #A3CDEA",
"4.	c #9ECBEC",
"5.	c #9BC8E9",
"6.	c #97C3E7",
"7.	c #92BDE8",
"8.	c #8FBBE9",
"9.	c #86B3E8",
"0.	c #96C2E7",
"a.	c #9FCFED",
"b.	c #9DCAEB",
"c.	c #A0C7E7",
"d.	c #A3C4E4",
"e.	c #A4C3E3",
"f.	c #ADC7E4",
"g.	c #AFC8E5",
"h.	c #BAD0EA",
"i.	c #B5CCE7",
"j.	c #B1CCE8",
"k.	c #ABCDE9",
"l.	c #A5CDEA",
"m.	c #A1D0ED",
"n.	c #9DCBEC",
"o.	c #99C8EC",
"p.	c #95C3EB",
"q.	c #91BEEA",
"r.	c #8CB8E9",
"s.	c #80ACE8",
"t.	c #97C7EC",
"u.	c #9CCAEC",
"v.	c #A3CCEA",
"w.	c #9DC8E8",
"x.	c #A0C6E6",
"y.	c #9EC3E4",
"z.	c #9FC4E4",
"A.	c #9DC1E3",
"B.	c #9EC1E3",
"C.	c #B7CEE8",
"D.	c #B1CDE8",
"E.	c #ACCEEA",
"F.	c #A8D1ED",
"G.	c #98C8EC",
"H.	c #94C3EB",
"I.	c #77A2E8",
"J.	c #94A1B8",
"K.	c #9FC3E4",
"L.	c #B1D2EB",
"M.	c #AED6EE",
"N.	c #B3D4ED",
"O.	c #B6D0EA",
"P.	c #ADCFEA",
"Q.	c #AED7EF",
"R.	c #ADD5ED",
"S.	c #9BA9CD",
"T.	c #8CB5E5",
"U.	c #94C4EB",
"V.	c #7FABE8",
"W.	c #94C2EB",
"X.	c #98C7EC",
"Y.	c #98C7EB",
"Z.	c #99C5E8",
"`.	c #9DC4E5",
" +	c #B2CAE6",
".+	c #C0D5EC",
"++	c #C1D5EC",
"@+	c #BFD4EB",
"#+	c #BCD2EA",
"$+	c #BCD1EA",
"%+	c #B9D1EA",
"&+	c #B4D4ED",
"*+	c #AFD7EF",
"=+	c #AFD6EE",
"-+	c #ACD6EF",
";+	c #A2D0EC",
">+	c #99A5B5",
",+	c #9DA8B3",
"'+	c #8498B7",
")+	c #83A5D5",
"!+	c #82AEE8",
"~+	c #6E97E6",
"{+	c #879BC6",
"]+	c #96C5EC",
"^+	c #98C5E9",
"/+	c #99C4E8",
"(+	c #9AC4E7",
"_+	c #9CC2E5",
":+	c #A3C3E3",
"<+	c #ADCBE7",
"[+	c #B1CCE7",
"}+	c #C2D6EC",
"|+	c #BBD7EE",
"1+	c #B9D8EF",
"2+	c #BAD3EC",
"3+	c #BAD5ED",
"4+	c #B4D7EF",
"5+	c #A3D0EC",
"6+	c #7D9CCB",
"7+	c #79A4E8",
"8+	c #76A1E8",
"9+	c #6F97E6",
"0+	c #6C94E5",
"a+	c #718FD3",
"b+	c #93C1EB",
"c+	c #9BC3E6",
"d+	c #9EC2E3",
"e+	c #A9C8E5",
"f+	c #ACCBE7",
"g+	c #BAD0E9",
"h+	c #C3D8ED",
"i+	c #C4D9EE",
"j+	c #BBD9EF",
"k+	c #B9DAF0",
"l+	c #B9D9EF",
"m+	c #B4D9F0",
"n+	c #ADD6EF",
"o+	c #A5CBE7",
"p+	c #92ACCF",
"q+	c #7692CD",
"r+	c #739DE7",
"s+	c #6D95E5",
"t+	c #6A8CD7",
"u+	c #94C1E9",
"v+	c #98C1E5",
"w+	c #9AC1E5",
"x+	c #9AC1E4",
"y+	c #A0C4E4",
"z+	c #A4C4E4",
"A+	c #A6C6E5",
"B+	c #A8C7E5",
"C+	c #AACAE7",
"D+	c #B0CDE8",
"E+	c #C0D4EB",
"F+	c #C5DAEF",
"G+	c #C5DBEF",
"H+	c #C4DAEE",
"I+	c #BDD8EE",
"J+	c #BED8EE",
"K+	c #BAD9EF",
"L+	c #B5D9F0",
"M+	c #B0D8EF",
"N+	c #A7D1ED",
"O+	c #9DC3E3",
"P+	c #939EB9",
"Q+	c #8A99BF",
"R+	c #719AE6",
"S+	c #709AE6",
"T+	c #6585CF",
"U+	c #95C0E7",
"V+	c #97C0E5",
"W+	c #99C0E4",
"X+	c #9BC1E4",
"Y+	c #AAC8E6",
"Z+	c #ADCAE7",
"`+	c #ADCCE9",
" @	c #BDD2EA",
".@	c #C4D8EE",
"+@	c #C3D8EE",
"@@	c #B3D8EF",
"#@	c #A8D2EE",
"$@	c #98B7D1",
"%@	c #9BA8C5",
"&@	c #6B90DD",
"*@	c #6180CA",
"=@	c #8CB9E9",
"-@	c #92BEE8",
";@	c #94BFE6",
">@	c #99C0E5",
",@	c #AECAE7",
"'@	c #AFCCE8",
")@	c #B6D1EA",
"!@	c #B9D5ED",
"~@	c #BFD8EE",
"{@	c #C0DAEF",
"]@	c #C8DCF0",
"^@	c #C9DDF0",
"/@	c #C7DCEF",
"(@	c #C4DBEF",
"_@	c #BEDAF0",
":@	c #BADAF0",
"<@	c #B6D9F0",
"[@	c #B1D8EF",
"}@	c #A7CBE6",
"|@	c #9CBEDF",
"1@	c #96BADB",
"2@	c #728DC7",
"3@	c #6284D3",
"4@	c #9EC4E5",
"5@	c #A2C6E5",
"6@	c #AACBE8",
"7@	c #B2CFE9",
"8@	c #B8D0EA",
"9@	c #B6D5ED",
"0@	c #CCDEF0",
"a@	c #CDDEF1",
"b@	c #C1DBEF",
"c@	c #AAD4EE",
"d@	c #9CBAD7",
"e@	c #919DB9",
"f@	c #8C95A7",
"g@	c #658AE1",
"h@	c #8DBAE9",
"i@	c #9BC4E7",
"j@	c #A6C9E7",
"k@	c #ACCCE9",
"l@	c #AED2EC",
"m@	c #B4D3EC",
"n@	c #B8D8EF",
"o@	c #B7DAF0",
"p@	c #BBDAF0",
"q@	c #C2DBEF",
"r@	c #B7D9F0",
"s@	c #B0D7EF",
"t@	c #A0CDED",
"u@	c #9AB8D0",
"v@	c #8C99B6",
"w@	c #6A91E4",
"x@	c #6387DB",
"y@	c #87B3E7",
"z@	c #85ADE0",
"A@	c #88B4E7",
"B@	c #9BC5E7",
"C@	c #A1C6E6",
"D@	c #ABCEEA",
"E@	c #AED3ED",
"F@	c #C3DBEF",
"G@	c #C7DCF0",
"H@	c #A8D3ED",
"I@	c #9AC8EC",
"J@	c #93B7E7",
"K@	c #83AEE8",
"L@	c #A7BFE3",
"M@	c #7B91C1",
"N@	c #6A92E4",
"O@	c #637FC8",
"P@	c #A3AFC1",
"Q@	c #80AAE4",
"R@	c #7786B7",
"S@	c #86B0E3",
"T@	c #A5C8E7",
"U@	c #A7D1EC",
"V@	c #ABCFEA",
"W@	c #ADD3ED",
"X@	c #B6D8EF",
"Y@	c #A9D3ED",
"Z@	c #A2D0ED",
"`@	c #79A1D6",
" #	c #81ACE7",
".#	c #A2B7D9",
"+#	c #6388E0",
"@#	c #6B92E4",
"##	c #7587BD",
"$#	c #A7AFBC",
"%#	c #81ABE4",
"&#	c #8292B8",
"*#	c #81AAE3",
"=#	c #9DCAEC",
"-#	c #9DCCEC",
";#	c #90ACD1",
">#	c #9DA2A9",
",#	c #82ADE6",
"'#	c #78A4E8",
")#	c #93B1E1",
"!#	c #8F9FCD",
"~#	c #8BA0C7",
"{#	c #81ABE3",
"]#	c #7F848F",
"^#	c #7E8690",
"/#	c #81A7D9",
"(#	c #A2CFEC",
"_#	c #96B7D9",
":#	c #8FA4C9",
"<#	c #8FABD1",
"[#	c #79A1D9",
"}#	c #77A2E6",
"|#	c #729BE6",
"1#	c #6E95E5",
"2#	c #6F95E4",
"3#	c #6E93E2",
"4#	c #8296BF",
"5#	c #7AA4E5",
"6#	c #898B8F",
"7#	c #82A9DE",
"8#	c #90BBE9",
"9#	c #91BEE9",
"0#	c #95C2EA",
"a#	c #99C7EB",
"b#	c #9ECCEC",
"c#	c #9EBDDD",
"d#	c #A5D2ED",
"e#	c #95C4EB",
"f#	c #86AEDD",
"g#	c #8995A5",
"h#	c #7196DF",
"i#	c #75A0E7",
"j#	c #729CE7",
"k#	c #7099E6",
"l#	c #6388DF",
"m#	c #6579BB",
"n#	c #718FD0",
"o#	c #78A2E6",
"p#	c #7CA3D8",
"q#	c #80ACE5",
"r#	c #89B6E8",
"s#	c #96C2E8",
"t#	c #9AC5E9",
"u#	c #96C4EB",
"v#	c #90BDEA",
"w#	c #AAADB8",
"x#	c #A3BCD2",
"y#	c #A1CDEC",
"z#	c #A5CEEB",
"A#	c #A4CDEB",
"B#	c #9BC8EB",
"C#	c #9AC6E9",
"D#	c #8AAEDB",
"E#	c #909DB9",
"F#	c #7B8FC2",
"G#	c #6F92DB",
"H#	c #6E96E6",
"I#	c #6D96E5",
"J#	c #6990E3",
"K#	c #688EE3",
"L#	c #658BE1",
"M#	c #6387DC",
"N#	c #6579BC",
"O#	c #739AD9",
"P#	c #7F99C3",
"Q#	c #80A8DF",
"R#	c #86B2E8",
"S#	c #8BB8E8",
"T#	c #A1A8C0",
"U#	c #9DB8D6",
"V#	c #9BC9EC",
"W#	c #9FCBEB",
"X#	c #9ECAEB",
"Y#	c #8D94AE",
"Z#	c #7B8DB5",
"`#	c #7789AD",
" $	c #6F83B6",
".$	c #6480C8",
"+$	c #607EC9",
"@$	c #617ABF",
"#$	c #667CBE",
"$$	c #7284B0",
"%$	c #7681AC",
"&$	c #729BE0",
"*$	c #83A9DF",
"=$	c #83AFE8",
"-$	c #8AAAD3",
";$	c #86A2D1",
">$	c #8DB3DE",
",$	c #97C5EB",
"'$	c #8087A3",
")$	c #7788B9",
"!$	c #7486B8",
"~$	c #7A85AD",
"{$	c #818BB1",
"]$	c #739BE5",
"^$	c #81A8E2",
"/$	c #859FC8",
"($	c #7FAAE0",
"_$	c #86B3E5",
":$	c #8FBDEA",
"<$	c #89B5E9",
"[$	c #7D9ED6",
"}$	c #90A1C6",
"|$	c #6B91DF",
"1$	c #6D94E4",
"2$	c #779ADC",
"3$	c #7CA6E5",
"4$	c #82AFE8",
"5$	c #8AB7E8",
"6$	c #758DC8",
"7$	c #6788D2",
"8$	c #6C91DF",
"9$	c #728ECE",
"0$	c #79A0DF",
"a$	c #7EAAE8",
"b$	c #7BA3E1",
"c$	c #8AB0DC",
"d$	c #87B3E8",
"e$	c #627DC4",
"f$	c #6B8BD3",
"g$	c #799DDB",
"h$	c #7AA5E8",
"i$	c #7FAAE5",
"j$	c #9CA0AA",
"k$	c #8BA6CE",
"l$	c #78A2E5",
"m$	c #6A7BB5",
"n$	c #6D8BCF",
"o$	c #7597DA",
"p$	c #729BE7",
"q$	c #77A2E7",
"r$	c #779DD5",
"s$	c #889BC4",
"t$	c #7E9FD9",
"u$	c #7BA7E8",
"v$	c #76A0E8",
"w$	c #77A0DA",
"x$	c #7B9AD9",
"y$	c #77A1E8",
"z$	c #77A1E6",
"A$	c #7685B8",
"B$	c #6A8AD4",
"C$	c #7298E0",
"D$	c #6C94E4",
"E$	c #7390D3",
"F$	c #6B90DE",
"G$	c #6C95E5",
"H$	c #6E96E5",
"I$	c #76A0E7",
"J$	c #6A8BD5",
"K$	c #7D8CBC",
"L$	c #6F88CA",
"M$	c #6A8BD6",
"N$	c #6B8FDC",
"O$	c #6D95E4",
"P$	c #6C8AD1",
"Q$	c #6C93E3",
"R$	c #729CE6",
"S$	c #75A0E8",
"T$	c #6E85C0",
"U$	c #6584CE",
"V$	c #6A8CD8",
"W$	c #6B8EDB",
"X$	c #6C92E2",
"Y$	c #6B7CB3",
"Z$	c #637BBF",
"`$	c #6280CA",
" %	c #6583CD",
".%	c #6B8DD9",
"+%	c #6A8DD9",
"@%	c #668CE1",
"#%	c #6F98E6",
"$%	c #719BE6",
"%%	c #6B93E4",
"&%	c #668CE2",
"*%	c #6674AA",
"=%	c #5F75B8",
"-%	c #5F7CC5",
";%	c #607EC7",
">%	c #6381CB",
",%	c #6483CC",
"'%	c #6789D8",
")%	c #6578B7",
"!%	c #668DE2",
"~%	c #6574A7",
"{%	c #5B6FAF",
"]%	c #5F75B7",
"^%	c #6179BD",
"/%	c #607DC6",
"(%	c #6072B0",
"_%	c #678EE2",
":%	c #678DE2",
"<%	c #5969A2",
"[%	c #5C6DAA",
"}%	c #5F71B0",
"|%	c #5D74B8",
"1%	c #5D75B9",
"2%	c #5F7CC4",
"3%	c #5B6DAC",
"4%	c #6183D4",
"5%	c #6285DA",
"6%	c #6286DC",
"7%	c #6284D7",
"8%	c #566696",
"9%	c #5A6BA8",
"0%	c #5A6BA9",
"a%	c #5D75BA",
"b%	c #5A6CAA",
"c%	c #6080CE",
"d%	c #6284D6",
"e%	c #6181D1",
"f%	c #54638C",
"g%	c #566594",
"h%	c #5869A0",
"i%	c #6673A2",
"j%	c #5A73BB",
"k%	c #5C76BC",
"l%	c #5E77BD",
"m%	c #878A92",
"n%	c #4E5CA1",
"o%	c #5565A5",
"                                                                                                                                ",
"                                                                                                                                ",
"                                                                                                                                ",
"                                                                                                                                ",
"                                                                                                                                ",
"                                                                                                                                ",
"                                                                                                                                ",
"                                                                                                                                ",
"                                                                                                                                ",
"                                                                                                                                ",
"                                                                                                                                ",
"                                                                                                                                ",
"                                                                                                                                ",
"                                                                                                                                ",
"        . + @ # $ % & * = = = - ; > > > > > > > , - - - - - - - - - - - - ' - - , > > > ) ! ~ ~ ~ ~ { ] ] ]                     ",
"        ^ / ( _ : < [ } | ; ; ; > > > > > > > , 1 ; ; - - - - - - - 2 ; ; 1 ; ; > > > > ) ~ ~ ~ ~ ~ ] ] ] 3 4 5 6 7 8 9 9 0 a   ",
"      b c d e f g h i j ' > > k k l > > > > > m ; > 1 - - - - - - - | 1 1 - 1 > > > > > ) ~ ~ ~ ~ ~ ] ] ] n o 5 6 7 8 9 p q r   ",
"      s t u v w x y z ' ) ) ) ~ ~ l > > > > m ; ; ; - - = i i i i i = - - A - ; ; > > > B C ! k D D E ] ] n o 5 F G H p I q r   ",
"    J K L M N O P Q R k ~ ~ ~ ~ ~ ) ) l > > ' - - - = = S [ [ [ [ [ * = i [ = = - 1 ' ' , T U R P P P V 3 W o 5 X 8 9 p q q r   ",
"    Y Z M `  ...P Q k ~ ~ ~ ~ ~ ~ ! C B m ' 1 - = = [ [ [ [ [ [ +.@.& [ [ [ [ [ A - - #.$.%.&.&.*.....=.-.;.>.,.'.8 p ).q q r   ",
"    !.~.M {.].^.^./.(.~ ~ ~ ~ ~ ~ l > > 1 - - A [ [ [ & [ +.& & _.:.<.& +.[ [ [ [ A j [.}.#.#.|.1.2.M 3.4.5.6.7.8.8 9.q q q r   ",
"    0.a.M b.c.] ] d.e.e.e.e.~ ~ ~ l > f.- g.i [ [ [ +.:.@.<.:.:.:.:.:.:.h.i.i.i.i.i.[ [ j.f f k.2.K l.m.n.o.p.q.8.r.9.q q s.r   ",
"    t.u.v.w.x.y.z.z.A.A.A.B.~ ~ l > f.- i [ [ [ [ +.:.:.:.:.:.:.:.:.:.:.:.:.:.:.:.:.C.[ [ D.f E.K K F.m.n.G.H.q.r.9 9.q s.I.I.J.",
"    t.u.w.;.x.] K.A.A.A.A.B.~ ~ l f.- i [ [ [ [ & :.:.:.:.:.:.:.:.:.:.:.:.:.:.:.:.:.C.L.M.N.O.P.Q.R.S.T.U.p.q.8.r.9 9.V.r I.I.J.",
"    W.X.Y.Z.4 `.A.A.A.A.A.B.~ l Q $.-  +[ C.h.h.h.:.:..+++++++++++++++@+#+++++$+:.:.h.%+&+*+=+M.-+;+  >+,+    '+)+!+!+V.I.I.~+{+",
"    ]+H.^+/+o (+_+A.A.A.B.:+~ > $.- <+[+[ C.:.:.#+.+.+}+}+}+}+}+}+}+}+}+++}+}+.+|+1+2+3+4+Q.Q.-+5+                  6+7+8+9+0+a+",
"    H.b+,./+/+c+c+_+A.A.d+(.~ > e+f+f j.% g+:.:.#+}+}+}+}+}+h+i+h+}+}+}+}+}+}+}+j+k+1+l+m+Q.n+o+p+                    q+I.r+s+t+",
"    q.b+u+,.5 v+w+w+x+d+y+z+A+B+C+v D+S _.:.#+@+E+}+}+i+i+i+F+G+H+i+i+h+}+}+}+I+J+K+k+L+M+n+N+O+P+                    Q+R+S+0+T+",
"    8.q.b+U+6 6 V+W+X+d+y+(.P Y+Z+`+< [ _. @E+}+}+h+}+G+G+G+G+G+G+G+G+F+.@+@J+J+J+K+k+@@Q.#@4 $@                      %@&@0+0+*@",
"    =@8.q.-@;@6 6 >@d+K.y+E P Z+,@'@S @.)@!@J+J+~@{@h+G+G+G+]@^@/@G+G+G+G+(@_@J+:@k+<@[@}@|@1@                          2@0+0+3@",
"    9 8 8.8.7.;@6 v+4@] 5@P P 6@f j.7@8@9@L+k+k+:@_@G+G+G+G+0@a@]@G+G+G+(@b@b@:@<@L+[@c@d@e@                            f@0+0+g@",
"    9 9 8 h@8.7.;@,.i@x.5@P P j@k@f l@m@!@n@o@k+p@G+q@q@G+G+0@^@(@q@q@q@b@k+k+r@s@n+c@t@u@                              v@0+w@x@",
"    y@z@A@9 8 8.X 6 5 B@C@^.P M D@E.f E@&+&+[@o@k+{@o@k+q@F@^@G@_@k+k+k+k+k+o@*+n+H@I@              J@K@L@              M@N@g@O@",
"  P@Q@R@S@9 8 8.X 6 ,./+i@5@T@M U@K V@W@Q.Q.Q.Q.Q.Q.Q.X@k+k+k+k+k+k+k+k+k+o@Q.Q.Y@Z@!.            `@ #s.7+.#            +#+#@###",
"  $#%#&#*#p 9 8 8.7.6 ,.i@V =#P M U@K K K K c@Q.Q.Q.Q.5         Q.@@k+k+o@Q.Q.Y@Z@-#;#            >#,#'#I.I.)#        !#+#+#+#  ",
"  ~#{#]#^#/#9.9 =@7.6 ,./+i@V b.=#~.L (#_#:#                    Q.Q.*+*+Q.Y@Y@Z@-#o.<#              [#}#I.I.|#s+s+1#2#3#+#+#+#  ",
"  4#5#  6#7#9.9 r.8#G 9#0#/+a#V b.=#=#b#                        c#d#Y@Y@Y@K 2.4.o.e#f#              g#h#i#R+j#k#0+0+0+N@+#l#m#  ",
"  n#o#    p#q#9.r#=@8.8.9#,.s#i@t#u#v#                        w#x#b#y#z#z#A#B#C#p.q.D#                E#F#G#H#I#J#K#N@L#M#N#    ",
"  O#o#    P#Q#R#9 S#8.8.8.'.u+0#0#q.8                         T#U#o.V#W#X#B#p.0#q.=@                    Y#Z#`# $.$+$@$#$$$%$    ",
"  &$o#      *$=$9.r#S#=@8.8.q.q.q.-$                          ;$>$e#e#,$,$H.q.q.=@9.                          '$)$!$~${$        ",
"  s+]$      ^$V.=$9.9 r#r.r.r.r.r./$                          ($_$:$q.q.q.q.r.<$!+[$                                            ",
"}$|$1$      2$3$q =$9.9 p ).).9 4$                            9 9 5$=@=@=@r.).q i#6$                                            ",
"  7$8$      9$0$a$a$q 9.I q q R#b$                            c$9.9.d$9 9 R#q a$k#                                              ",
"  e$f$        g$8+I.h$V.V.V.V.i$                            j$k$s.q =$9.).V.V.l$                                                ",
"  m$n$        o$p$8+I.I.I.I.q$r$                            s$t$u$s.s.s.a$I.v$w$                                                ",
"              x$0+R+y$y$y$y$z$A$                            B$C$I.I.I.I.I.8+D$                                                  ",
"              E$F$0+G$G$G$H$z$A$                            B$C$I.I.h$a$I.I$J$                                                  ",
"              K$L$M$N$0+0+0+O$P$                            Q$R$I.I.I.r S$I#                                                    ",
"                T$U$J$V$W$0+0+X$                            0+I#~+~+~+~+~+0+                                                    ",
"                Y$Z$`$ %J$.%+%@%                            0+0+0+#%$%0+%%&%                                                    ",
"                *%=%-%;%>%,%B$'%)%                          !%w@0+H$#%0+@#+#                                                    ",
"                ~%{%]%^%-%/%,%,%(%                          +#L#_%_%_%_%:%+#                                                    ",
"                  <%[%}%|%|%1%2%3%                          4%4%5%+#6%7%+#+#                                                    ",
"                  8%<%9%9%9%0%a%b%                          -%-%c%d%e%+$d%d%                                                    ",
"                  f%g%h%h%h%h%h%i%                          j%k%l%l%l%l%l%l%                                                    ",
"                  f%f%f%f%f%f%f%m%                          n%o%9%9%9%9%9%9%                                                    ",
"                                                                                                                                ",
"                                                                                                                                ",
"                                                                                                                                ",
"                                                                                                                                ",
"                                                                                                                                ",
"                                                                                                                                ",
"                                                                                                                                ",
"                                                                                                                                "};
