/* XPM */
static char * deepamehta16x16_xpm[] = {
"16 16 113 2",
"  	c None",
". 	c #C3D9EE",
"+ 	c #BFD4EC",
"@ 	c #B8CFE9",
"# 	c #B4CCE7",
"$ 	c #B4CCE8",
"% 	c #B2CBE6",
"& 	c #AFC9E5",
"* 	c #ADC7E5",
"= 	c #A9C8E6",
"- 	c #9FC8E8",
"; 	c #94C0E9",
"> 	c #B7D0E8",
", 	c #B7CFE9",
"' 	c #B1CAE6",
") 	c #ACC6E4",
"! 	c #ABC6E3",
"~ 	c #ADC7E4",
"{ 	c #AEC8E5",
"] 	c #AAC5E3",
"^ 	c #A7C4E3",
"/ 	c #A4C4E4",
"( 	c #9EC6E6",
"_ 	c #91BCE8",
": 	c #8AB0DF",
"< 	c #A8CDEA",
"[ 	c #AAC7E5",
"} 	c #A8C4E3",
"| 	c #ABC6E4",
"1 	c #B2CAE6",
"2 	c #B0C9E6",
"3 	c #A8C5E4",
"4 	c #A4C7E5",
"5 	c #9BC5E7",
"6 	c #8DB9E8",
"7 	c #81ABE7",
"8 	c #9CC8EA",
"9 	c #A0C8E7",
"0 	c #A1C3E4",
"a 	c #A3C2E3",
"b 	c #B7CEE8",
"c 	c #B9D0E9",
"d 	c #BAD1EA",
"e 	c #B5CEE8",
"f 	c #AFCDE9",
"g 	c #A4CCEA",
"h 	c #96C4EA",
"i 	c #88B4E8",
"j 	c #7EA6E3",
"k 	c #97C4EA",
"l 	c #99C4E8",
"m 	c #9CC1E4",
"n 	c #A4C4E3",
"o 	c #ADCAE7",
"p 	c #C0D4EB",
"q 	c #C3D7ED",
"r 	c #C2D7EC",
"s 	c #C1D5EC",
"t 	c #BAD6EE",
"u 	c #ADD4ED",
"v 	c #83A3D5",
"w 	c #7198E1",
"x 	c #91BAE7",
"y 	c #92BEE8",
"z 	c #9AC2E5",
"A 	c #A5C7E6",
"B 	c #B1CDE9",
"C 	c #BAD6ED",
"D 	c #C2DAEE",
"E 	c #C7DCEF",
"F 	c #C5DBEF",
"G 	c #BFDAEF",
"H 	c #B3D7EF",
"I 	c #A0C0DA",
"J 	c #6C90DB",
"K 	c #8DA6CC",
"L 	c #88B2E2",
"M 	c #94C0E7",
"N 	c #A0C7E8",
"O 	c #A8CFEB",
"P 	c #ABD1EB",
"Q 	c #B1D6EF",
"R 	c #BEDAF0",
"S 	c #B6D9F0",
"T 	c #B0D7EF",
"U 	c #9AC3E5",
"V 	c #89ACDD",
"W 	c #84A8E4",
"X 	c #688AD9",
"Y 	c #819FD1",
"Z 	c #85AAD9",
"` 	c #8CB9E9",
" .	c #95C0E8",
"..	c #9EC7E7",
"+.	c #9CC8EB",
"@.	c #8EB9E6",
"#.	c #7794CD",
"$.	c #6A8AD3",
"%.	c #7593D3",
"&.	c #81AEE8",
"*.	c #85B1E8",
"=.	c #88B5E8",
"-.	c #86B2E8",
";.	c #7097E2",
">.	c #7398DE",
",.	c #7AA5E8",
"'.	c #749DE4",
").	c #647DC2",
"!.	c #6789D5",
"~.	c #6C94E5",
"{.	c #59689A",
"].	c #596CA6",
"^.	c #5F7BC5",
"                                ",
"                                ",
"    . + @ # # # $ % & * = - ;   ",
"  > , ' ) ! ~ { { * ] ^ / ( _ : ",
"  < [ ^ } | { 1 ' 2 ) 3 4 5 6 7 ",
"8 9 0 a | ' b c d @ e f g h i j ",
"k l m n o c p q r s t u     v w ",
"x y z A B C D E F G H I       J ",
"K L M N O P Q R S T U   V W   X ",
"Y Z ` ;  .      ..+.@.    #.$.  ",
"%.  &.*.        =.-.            ",
"    ;.>.        ,.'.            ",
"    ).!.        ~.              ",
"    {.].        ^.              ",
"                                ",
"                                "};
